<mxfile host="app.diagrams.net" agent="Mozilla/5.0 (Windows NT 10.0; Win64; x64) AppleWebKit/537.36 (KHTML, like Gecko) Chrome/127.0.0.0 Safari/537.36" version="24.7.7">
  <diagram name="Page-1" id="ia7Lk1zM3ax8yUVKVwZD">
    <mxGraphModel dx="794" dy="458" grid="1" gridSize="10" guides="1" tooltips="1" connect="1" arrows="1" fold="1" page="1" pageScale="1" pageWidth="850" pageHeight="1100" background="#ffffff" math="0" shadow="0">
      <root>
        <mxCell id="0" />
        <mxCell id="1" parent="0" />
        <mxCell id="NPMprlyEkeWt0jXilT0_-40" style="edgeStyle=orthogonalEdgeStyle;rounded=0;orthogonalLoop=1;jettySize=auto;html=1;entryX=0;entryY=0;entryDx=0;entryDy=0;" edge="1" parent="1" source="NPMprlyEkeWt0jXilT0_-11" target="NPMprlyEkeWt0jXilT0_-33">
          <mxGeometry relative="1" as="geometry" />
        </mxCell>
        <mxCell id="NPMprlyEkeWt0jXilT0_-11" value="ep" style="whiteSpace=wrap;html=1;aspect=fixed;fontSize=20;fontStyle=1" vertex="1" parent="1">
          <mxGeometry x="120" y="120" width="40" height="40" as="geometry" />
        </mxCell>
        <mxCell id="NPMprlyEkeWt0jXilT0_-41" style="edgeStyle=orthogonalEdgeStyle;rounded=0;orthogonalLoop=1;jettySize=auto;html=1;entryX=0;entryY=0;entryDx=0;entryDy=0;" edge="1" parent="1" source="NPMprlyEkeWt0jXilT0_-15" target="NPMprlyEkeWt0jXilT0_-39">
          <mxGeometry relative="1" as="geometry" />
        </mxCell>
        <mxCell id="NPMprlyEkeWt0jXilT0_-15" value="eq" style="whiteSpace=wrap;html=1;aspect=fixed;fontSize=20;fontStyle=1" vertex="1" parent="1">
          <mxGeometry x="400" y="120" width="40" height="40" as="geometry" />
        </mxCell>
        <mxCell id="NPMprlyEkeWt0jXilT0_-20" value="" style="endArrow=none;html=1;rounded=0;" edge="1" parent="1">
          <mxGeometry width="50" height="50" relative="1" as="geometry">
            <mxPoint x="590" y="240" as="sourcePoint" />
            <mxPoint x="630" y="240" as="targetPoint" />
          </mxGeometry>
        </mxCell>
        <mxCell id="NPMprlyEkeWt0jXilT0_-22" value="1.2" style="rounded=0;whiteSpace=wrap;html=1;fontSize=20;fontStyle=1;align=center;" vertex="1" parent="1">
          <mxGeometry x="240" y="120" width="40" height="40" as="geometry" />
        </mxCell>
        <mxCell id="NPMprlyEkeWt0jXilT0_-26" value="e" style="text;html=1;align=center;verticalAlign=middle;resizable=0;points=[];autosize=1;strokeColor=none;fillColor=none;fontSize=20;fontStyle=1" vertex="1" parent="1">
          <mxGeometry x="280" y="100" width="30" height="40" as="geometry" />
        </mxCell>
        <mxCell id="NPMprlyEkeWt0jXilT0_-31" value="" style="curved=1;endArrow=classic;html=1;rounded=0;exitX=0.5;exitY=1;exitDx=0;exitDy=0;" edge="1" parent="1">
          <mxGeometry width="50" height="50" relative="1" as="geometry">
            <mxPoint x="260" y="360" as="sourcePoint" />
            <mxPoint x="300" y="420" as="targetPoint" />
            <Array as="points">
              <mxPoint x="300" y="370" />
              <mxPoint x="250" y="420" />
            </Array>
          </mxGeometry>
        </mxCell>
        <mxCell id="NPMprlyEkeWt0jXilT0_-32" value="&lt;font style=&quot;font-size: 20px;&quot;&gt;&lt;b&gt;e&lt;/b&gt;&lt;/font&gt;" style="rounded=0;whiteSpace=wrap;html=1;rotation=0;" vertex="1" parent="1">
          <mxGeometry x="200" y="160" width="40" height="40" as="geometry" />
        </mxCell>
        <mxCell id="NPMprlyEkeWt0jXilT0_-47" style="edgeStyle=orthogonalEdgeStyle;rounded=0;orthogonalLoop=1;jettySize=auto;html=1;entryX=0;entryY=0;entryDx=0;entryDy=0;" edge="1" parent="1" source="NPMprlyEkeWt0jXilT0_-23" target="NPMprlyEkeWt0jXilT0_-46">
          <mxGeometry relative="1" as="geometry" />
        </mxCell>
        <mxCell id="NPMprlyEkeWt0jXilT0_-23" value="" style="rounded=0;whiteSpace=wrap;html=1;" vertex="1" parent="1">
          <mxGeometry x="240" y="160" width="40" height="40" as="geometry" />
        </mxCell>
        <mxCell id="NPMprlyEkeWt0jXilT0_-33" value="&lt;font style=&quot;font-size: 20px;&quot;&gt;&lt;b&gt;x&lt;/b&gt;&lt;/font&gt;" style="whiteSpace=wrap;html=1;aspect=fixed;" vertex="1" parent="1">
          <mxGeometry x="200" y="120" width="40" height="40" as="geometry" />
        </mxCell>
        <mxCell id="NPMprlyEkeWt0jXilT0_-36" value="1.2" style="rounded=0;whiteSpace=wrap;html=1;fontSize=20;fontStyle=1;align=center;" vertex="1" parent="1">
          <mxGeometry x="520" y="120" width="40" height="40" as="geometry" />
        </mxCell>
        <mxCell id="NPMprlyEkeWt0jXilT0_-37" value="&lt;font style=&quot;font-size: 20px;&quot;&gt;&lt;b&gt;e&lt;/b&gt;&lt;/font&gt;" style="rounded=0;whiteSpace=wrap;html=1;rotation=0;" vertex="1" parent="1">
          <mxGeometry x="480" y="160" width="40" height="40" as="geometry" />
        </mxCell>
        <mxCell id="NPMprlyEkeWt0jXilT0_-42" style="edgeStyle=orthogonalEdgeStyle;rounded=0;orthogonalLoop=1;jettySize=auto;html=1;" edge="1" parent="1" source="NPMprlyEkeWt0jXilT0_-38">
          <mxGeometry relative="1" as="geometry">
            <mxPoint x="610" y="240" as="targetPoint" />
          </mxGeometry>
        </mxCell>
        <mxCell id="NPMprlyEkeWt0jXilT0_-38" value="" style="rounded=0;whiteSpace=wrap;html=1;" vertex="1" parent="1">
          <mxGeometry x="520" y="160" width="40" height="40" as="geometry" />
        </mxCell>
        <mxCell id="NPMprlyEkeWt0jXilT0_-39" value="&lt;font style=&quot;font-size: 20px;&quot;&gt;&lt;b&gt;x&lt;/b&gt;&lt;/font&gt;" style="whiteSpace=wrap;html=1;aspect=fixed;" vertex="1" parent="1">
          <mxGeometry x="480" y="120" width="40" height="40" as="geometry" />
        </mxCell>
        <mxCell id="NPMprlyEkeWt0jXilT0_-43" value="" style="rounded=0;whiteSpace=wrap;html=1;fontSize=20;fontStyle=1;align=center;" vertex="1" parent="1">
          <mxGeometry x="240" y="280" width="40" height="40" as="geometry" />
        </mxCell>
        <mxCell id="NPMprlyEkeWt0jXilT0_-44" value="&lt;font style=&quot;font-size: 20px;&quot;&gt;&lt;b&gt;e&lt;/b&gt;&lt;/font&gt;" style="rounded=0;whiteSpace=wrap;html=1;rotation=0;" vertex="1" parent="1">
          <mxGeometry x="200" y="320" width="40" height="40" as="geometry" />
        </mxCell>
        <mxCell id="NPMprlyEkeWt0jXilT0_-45" value="" style="rounded=0;whiteSpace=wrap;html=1;" vertex="1" parent="1">
          <mxGeometry x="240" y="320" width="40" height="40" as="geometry" />
        </mxCell>
        <mxCell id="NPMprlyEkeWt0jXilT0_-46" value="&lt;font style=&quot;font-size: 20px;&quot;&gt;&lt;b&gt;x&lt;/b&gt;&lt;/font&gt;" style="whiteSpace=wrap;html=1;aspect=fixed;" vertex="1" parent="1">
          <mxGeometry x="200" y="280" width="40" height="40" as="geometry" />
        </mxCell>
      </root>
    </mxGraphModel>
  </diagram>
</mxfile>
